/* XPM */
static char *b4057e98c0a84649b01507139cfde822dj2ivDFKXbsVvf74[] = {
/* columns rows colors chars-per-pixel */
"32 32 10 1 ",
"  c None",
". c #17111A",
"X c #17111B",
"o c #3C1727",
"O c #502539",
"+ c #812B3B",
"@ c #A9303D",
"# c #D13336",
"$ c #E66161",
"% c #EF9898",
/* pixels */
"                                ",
"                                ",
"                                ",
"              ....              ",
"             .$$##.             ",
"            .$$$###.            ",
"           .$$$$####.           ",
"          .$$$$$#####.          ",
"         .$$$$%#######.         ",
"        .$$$$%#@@######.        ",
"       .+#$%%#@@@@####OO.       ",
"       .++###@@@@@@##OOO.       ",
"       .++++#@@@@@@@OOOO.X      ",
"       .++++#@@@@@@@OOOO..      ",
"       .++++#@@@@@@@OOOO.X      ",
"       .++++@@@@@@@@OOOO.X      ",
"       .++++#@@@@@@@OOOO.X      ",
"       .++++@@@@@@@@OOOO.X      ",
"       .++++@@@@@@@@OOOO.X      ",
"       .++++@@@@@@@@OOOO.X      ",
"       .++OOO@@@@@@OooOO.X      ",
"       .+OOOOO@@@@oooooO.X      ",
"        .OOOOOO@@oooooo.XX      ",
"        X.OOOOOOoooooo.XXX      ",
"         X.OOOOOooooo.XXX       ",
"          X.OOOOoooo.XXX        ",
"           X.OOOooo.XXX         ",
"            X.OOoo.XXX          ",
"             X....XXX           ",
"              XXXXXX            ",
"               XXXX             ",
"                                "
};
