/* XPM */
static char *_d978e24cf784b22f2e9e581b970405fBem91R8Go9MmAw4i[] = {
/* columns rows colors chars-per-pixel */
"32 32 24 1 ",
"  c None",
". c #201E30",
"X c #211E30",
"o c #201F30",
"O c #211F30",
"+ c #201E31",
"@ c #211E31",
"# c #201F31",
"$ c #211F31",
"% c #E44A4A",
"& c #E54A4A",
"* c #E44B4A",
"= c #E54B4A",
"- c #E44A4B",
"; c #E54A4B",
": c #E44B4B",
"> c #E54B4B",
", c #FFFEFE",
"< c #FEFFFE",
"1 c #FFFFFE",
"2 c #FEFEFF",
"3 c #FFFEFF",
"4 c #FEFFFF",
"5 c white",
/* pixels */
"                                ",
"                                ",
"                                ",
"                                ",
"                                ",
"                                ",
"                                ",
"            OOOOOOOOO+OOO       ",
"           O::%%%%**:%:%:O      ",
"          O%%*%3313333%%::O     ",
"          O%%*333313133%:%O     ",
"          O:%33333333133:%O     ",
"          O%%33**333%:33%:O     ",
"          O%%33%*%3%%%33%:O     ",
"          O%%33%**3*%%33::O     ",
"          O%%33333333333:%O     ",
"          O:*33331133333%*O     ",
"          o%%%33%333%33*%%O     ",
"          O:%%33%311%33*%%O     ",
"          ##%*%%%***%:*%%#O     ",
"          OO+#OO..OOOO+OOOO     ",
"           OOOOOo.OOOOOOOO      ",
"                                ",
"                                ",
"                                ",
"                                ",
"                                ",
"                                ",
"                                ",
"                                ",
"                                ",
"                                ",
"                                "
};
