/* XPM */
static char *_e46ad6544604fc5d76e3718e4a77d56GUJtc3ICPROGf3qT[] = {
/* columns rows colors chars-per-pixel */
"384 32 56 1 ",
"  c None",
". c #201E30",
"X c #211E30",
"o c #201F30",
"O c #211F30",
"+ c #211E31",
"@ c #201F31",
"# c #211F31",
"$ c #076028",
"% c #066128",
"& c #076128",
"* c #066029",
"= c #076029",
"- c #066129",
"; c #076129",
": c #9C1A4C",
"> c #9C1B4C",
", c #9C1A4D",
"< c #9C1B4D",
"1 c #9D1B4D",
"2 c #CC3048",
"3 c #CD3048",
"4 c #CC3148",
"5 c #CC3049",
"6 c #CD3049",
"7 c #CC3149",
"8 c #E44A4A",
"9 c #E54A4A",
"0 c #E44B4A",
"q c #E44A4B",
"w c #28860E",
"e c #29860E",
"r c #28870E",
"t c #28860F",
"y c #29860F",
"u c #28870F",
"i c #29870F",
"p c #72A01C",
"a c #73A01C",
"s c #72A11C",
"d c #73A11C",
"f c #72A01D",
"g c #73A01D",
"h c #72A11D",
"j c #73A11D",
"k c #A4CC42",
"l c #A5CC42",
"z c #A4CD42",
"x c #A5CD42",
"c c #A4CC43",
"v c #A5CC43",
"b c #A4CD43",
"n c #FFFFFE",
"m c #FFFEFF",
"M c #FEFFFF",
"N c white",
/* pixels */
"                                                                                                                                                                                                                                                                                                                                                                                                ",
"                                                                                                                                                                                                                                                                                                                                                                                                ",
"                                                                                                                                                                                                                                                                                                                                                                                                ",
"                                                                                                                                                                                                                                                                                                                                                                                                ",
"                                     OOO   OOOOOO   OOOO             OOO   OOOOOO   OOOO                                                                                                                                             OOO   OooooO   OOOO             OOO   OOOOOO   OOOO                                                                                                        ",
"     OOO   OOOOOO   OOOO            O888O OhhhhhgO OghhgO           OqqqO OhhhhhgO OghhgO                                                                                                            OOO   OOOOOO   OOOO            O888O OhhhhhhO OhhhgO           O88qO OhhhhhhO OhhhhO                                                                                                       ",
"    O888O OhhhhhhO OhgghO           O222<OOOOOOOOOOOOOOOO           O242<OOOOOOOOOOOOOOOO            OOO   OOOOOO   OOOO                                                                            O888O OhhhhhhO OhhhhO           O2221OOOoOXXOOOOOOOOO           O222<OOOOOOOOOOOOOOOO            OOO   OoOOOO   OOXo                                                                        ",
"    O222<OOOOOOOOOOOOOOOO            OO<O<288828222282888O           Oo<O<288828222282888O          O888O OhhhhhhO OhhhhO                                                                           O222<OOOOOOOOOOOOOOOO            OO<O128802q222282888O           OO1O<2qq82q222282888O          O888O OhphhhgO OhhssO                                                                       ",
"     OO<O<288q4q222282q88O          O21OOOO<<<2<2222<2<<OO          O2<OOOO<<<41222214<<OO          O222<OOOOOOOOOOOOOOOO           OOO   OOooooO   OOOOO           OOX   ooooooO   OOOOO            OO<O<288828222202888O          O2<OOOO<<<2<2222<211OO          O21OOOO<<<4122221211OO          O222<OOOOOOOXXXXXXXXO           ooo   OOOOOXO   OOOOO           OOO   OOooOoO   OOOOO       ",
"    O2<OOOO<114<2222<2<<OO          O82O11442222222222222O          O84O<<222442222222442O           OO<O<28882q2242q288qO         OqqqO OhhgggghO XhhhhgO         O88qO ogggggghO OhhhhhO          O2<OOOO<<<2<22221211OO          O82O<<222442222424422O          O82O<<224442222222224o           OO1O<28q82q4244q4qqqO         O888O OgghhhhhO OhhhhhO         O888O OgggddghO OhhhghO      ",
"    O84O<<222222222222222O          Oq2OOOOOOOOOOOOOOOOOOO          O82OOOOOOOOOOOOOOOOOOO          O2<OOOO<<<2<2222<2<<OO         O222<XXOOooooOOoXOOOOOO         O244<OOoXooooOOOOOOOOOO          Oq2o<<222222224442222O          Oq2OOOOOOOOOOOOOOOOOOO          O82OOOOOOOOOOOOOXoOoOo          O21OOOO<<<2<2224>2<<OO         O2221OOOOOOOOOOOOOOOOOO         O2221OOOOoOooOOOOOOOOOO      ",
"    O84OOOOOOOOOOOOOOOOOOO          OqOOtttt;mmmm;y;mmmm=tO         O8OOtttt;mmmm=t=mmmm;tO         O82O<<222222222222222O          OO<O<2qq828222444q4000O         OO<O1280028222244q4088O         O84OOOOOOOOOoXXXooOOOO          OqOOtttt;mmmm*y;mmmm;tO         OqOOttty*mmmm=t=mmmm;yO         O82O<<222222222444222O          oo1o120082822222282q88O         OO1O128882022222202888O     ",
"    O8OOyyyy*mmmm;y;mmmm*tO          OOthhhpt===;yht====thO          OOyhhhhy===;tht====thO         O82OOOOOOOOOOOOOOOOOOO         O2<OOXX<<>21222222121<OO        O4<OOOO11>21222222<21<OO         OqOOtyyy;mmmm$y$mmmm;yO          OOtghhht=*;*tht====thO          OOthhhpy**=;tht====thO         O82OOOOOOOOOoOOXOoOOOO         O21ooOO<<<2<222222<2<1OO        O21ooOO111212222221211OO     ",
"     OOthhhhy*;;=thy;;;=thO           OhhhhhhhhhhhhhghphhhO           OhhhhhhhhhhhphghphhhO         O8OOtttt=mmmm*y;mmmm=tO        Oq2O<<42222222222222222O        Oq4O<122222222222222222O          OOthhhht=;;*tht;;;;thO           OhhhhhhhhhhhhhhhhhhhO           OhhhhhhhphhhhhhhhhhhO         O8OOtttt=mmmm*t;mmmm*tO        O82o<124422222222442422O        O82o>122222222222222244O     ",
"      XhhhhhhhhhphhphhhphhO           Ohhhhh====****==*;hhO           Ohhhhh===*;*======hhO          OOthhhht=***yhy;;==thO        Oq2OOXooOXoooOOOOOOOOOOO        Xq4OOOOOOoOooOOOOOOOOOOO           OhhhhghphhhhhhhshhhhO           Ohghhh=;;;*;=====*hhO           Ohhhhh=;=*========hhO          OOthhhht=;*;tht;;**tjO        O82OOOOOOOOOOOOOOOOOoOOO        O82oooooooooXOOOOOOOOoOO     ",
"      Xhhphh==*;===**;==hhO           OhhhhtghhgphphhhhhyhO           OhhhhyghhhhhphhhhhthO           OhhhhhhphhhhhhhhgghhO        O8OOtity;mmmmm*t;mmmmm=iO       XqXOyiyi=mmmmm*t=mmmmm*yO          Ohhhhh==*;*$*$*;;;hhO           OhhghihhhhhhhhhhhhthO           Ohhhhthhhhhhhhhhhhyho           OhhhhhhhphhhhhhhjjjjO        O8OOtiti;mmmmm;t;mmmmm;yO       o8ooyyii=mmmmm=t=mmmmm;tO    ",
"      OhhshyhhhhhhhhhhphyhO           OhhhhhhhhhttyttghhhhO           OhhhhhhhhhttiithhhhhO           Ohhhhh*$=*==;**===hhO         OOyhhshy====;tht=====yhO        OOyhhphy====;tht***;=thO          OhhhhyhhhhhshhhshhthO           Xhphhhhhhhyyytyhhhhho           OhphhhhhhhtyttthhhhhO           Ohhhph======**====hhO         ootshhsy==*$;tht=$===yhX        OOyhhhht===$;yhy=$==;yhO    ",
"      OhhhhhhhpptyttthhhhhO            OyhhhhhhhghhhhhhhiO             OyhhhhhhhhhhhhhhhyO            OhhhhyphhhhhhhhhhhthO          OhhhhhhhhhshhhhhhghhhhO         OhhhhhhhhhhhhhhhhhhhhhO          OhhhhsshhhyytyyhhhhhO           oXOyhshhhhhhhhhhhhyXo           OOOtphhhhhhhhhhhhhyOO           OhhhpthhhhshhhhsghihO          Xhhhhhshhhshhhhhghhhhho         OhhhhhshhhhhhhhhghhhhhO    ",
"       OyhhhhhphhhhphhhhyO              OhhhhhhhhhhhghttO               Xhhhhhhhhhhhghtio             OhhhhhhphhyyytyhhhhhO          Ohhhhh===$*=*;*==**;hhO         Ohhhhh*===*======--=hhO           OOthghhhhhshhhhhhyO           OtshOyhhhhhhhhphhyyoyyo         OthhOthhhhhhhhhhhitOtto          OhhphhhhhhyyttyhhhhhO          Ohhhhh*==;;==*=**;;=hhX         Ohhhhh*==;;**====**;hhO    ",
"        XyhhhhhsshhhhhttO               OyghyOhhhhhhhhOO                XyhhyOhhhhhghhOO               OyhhhhhphhhphsghhtO           OhhhsyhhshhhhhhhhhhhyhO         OhhhpyhhhhhhhhhhhhhhtgO           OyOyhhhhhhhhhhhtyOO           OthhhhhghhhhhhhhhOoyyto         OthhhphhhhhhhhhhhOOyttO           OOyhhhhhphhhhhhhhtO           OhhhhyhsghhghhhhhhhhyhX         OhhhhthshhhghhhhhhhhyhO    ",
"        ohhsyhhsghhhhhOO                 OhhhhOkkkkkkghO                 OhhhhOkkkkkkghO                oyhhhhhhhhhhshytO            OhhhshhhhhyyyyytthhhhhO         OhhhhhhphhytttttthjhhhO          OhhhhhphhphhhhhhXXttO           OythhhhhkkkkkvchgoyyO           OtthhhghkkkkkkkhgOttO            OtOthhhhhhhhhhsyyOO           OhhhsphhshytttyyyhhhhhO         OhhhshhhshyyyytytshhhhX    ",
"        ohhsXhkkkvkkkhhO                 OtyyyOkkkkkkkhO                 OtttyOkkkkkkkhO                ohhhyhhghhhhhpXX              OysshhhhhhphhhhhhhhtO           XyhhhhhhphphhhjjhhhtO          OthhhhhhhckkkkkkhhotttO           OOOOhhkkkkkvkcchoOO             OOOOhhckkkkckkkhOOO            OhhhhhhhhhhhhhhsoXttO           OyhhhhhhhhhhhhhhhhhyO           OthhhhhhhhhhhhhhhhhtO     ",
"        oytyXckkkkvkkkhO                 X;OoOkkkkkkkkhO                 O;OOOkkkkkkkkhO                OhhhOhkkkkkkkhhX               OyyhhhhhhphhhhhhttO             OyyhhhhhhghhhjjgttO           OttttOhhckckkkkkkhoytyO             Othhkkvkkkkckso                 OthhkkvkkkckkhO             OthhhhhhhkkkkkkkgsotttO           OtthhhhhhhhhhhhhtyO             OtthhhhhhhhhhhhhyyO      ",
"         ooosckkkvkkkkhO                OthhhkkkkkkkkkhhO               OthhhkckkkkkkkhhO               otyyOkkkkkkkkkho               OOXhsshhhhhhhhhhOOO             OOOhhhphhhghhjjjOOO            OOOOthhkkkkkkkkkhoOOO              Xyhhkkkkkkkccso                 OthhkkkkkkkkkhO             OttttOhhkkkkkkkkkhotttO           XXXhshhhhhhhghhhOOO             OXXhshhhhhhhhhhhOOO      ",
"         OthhcckkkkkkkhO                OthhhhcckkkkkhhhhO              OthhhhkkkkkkkhhhhO               OOOhkkkkkkkkkhO              OhhhhhhkkkkkkkkkhhOtO           oshhhhhkkvkkkkkkhhOtO              Othhckkkkkkccso                 OthhhtkkkkkkphO                 OthhhtkkkkkkhpO              OOOOthhkkkkkkkkkhOOOO           OhhhhhhkcckkkkkkhhOyO           OhhhhhhccckkkkkkhhOyO     ",
"        OthhhhckvkvkkhhhO              OyhhhtoOOOOOOOthhhO             OyhhhtOOOOOOOOyhhhO               OyhhkkkkkkkkkhO             OyhhtXhkkkkkkkkkcchOttO         OyhgtOhkvkkkkkkkkkhOttO             OthhhkkkkkkchhX                  OtthhOOOOOOhtO                  OtthhOOOOOOhto                 OthhkkkkkkkkkgO             OyhhtOhkvcvkkkkvkkhoytO         OyhhtXhcccbkkkkkkkgottO    ",
"        OthhhOOOOOOOOhhhO              OttuyO        OytyO             OttitO        OyyyO              OyhhhhkkkkkkkhhhO            OttyOhhkkkkkkkkkkbhOttO         OyyyOhhkkkkkkkkkkkgOttO              OthhOOOOOOOhhO                   OthhO OttttO                    OthhO OttttO                  OthhhkvkkkkkhgO             OiytOhhkkkvkkvkkkkhOttO         OyytohhcckvkkkkkkkgOtyO    ",
"        OttttO      OtttO               OOoO          OOO               OOOO          oOO               OyhhhOOOOOOOOhhhO             oXOyhhhkkkkkkvkkjjOOO           oooyhhhkkkkkkvkkhhOOO               OtttO   oittiO                    OOO   OOOo                      OOO   OOOO                    OthhOOOoooOghO              OOOthhhkkkkkkkkkhhOOO           OOoyssszkkkkkkkkghOOO     ",
"         OOOO        OOO                                                                                OytytO      OiiiO               OthhhOOOOOOOOOgjO               OyhhhOOOOOOOOOhhO                  OOO     OOOO                                                                                   OtttO   OiiytO                OthhOOOOOOOOOOhhO               oyshOOOOOOOOOOhhO       ",
"                                                                                                         OOOO        OOO                 OthhO      OtgtO                OihhO      OthtO                                                                                                                  OOO     OOOO                 OthtO       otttO               oyhyO       OittO       ",
"                                                                                                                                          OOO       OttO                  ooO       OttO                                                                                                                                                OttO         OOO                oyto         OOO        ",
"                                                                                                                                                    OOO                             OOO                                                                                                                                                 OOO                             ooX                     "
};
